{
	"asset":{
		"generator":"Khronos glTF Blender I/O v4.1.63",
		"version":"2.0"
	},
	"scene":0,
	"scenes":[
		{
			"name":"Scene",
			"nodes":[
				0
			]
		}
	],
	"nodes":[
		{
			"mesh":0,
			"name":"MoissaniteDiamondRing",
			"scale":[
				1.2968811988830566,
				0.8995499610900879,
				0.8995499610900879
			]
		}
	],
	"materials":[
		{
			"doubleSided":true,
			"name":"Gold",
			"pbrMetallicRoughness":{
				"baseColorFactor":[
					0.800315260887146,
					0.5356975197792053,
					0.2505691647529602,
					1
				],
				"roughnessFactor":0.10000000149011612
			}
		},
		{
			"alphaMode":"BLEND",
			"doubleSided":true,
			"name":"Diamond",
			"normalTexture":{
				"index":0
			},
			"pbrMetallicRoughness":{
				"baseColorFactor":[
					0.8001105785369873,
					0.6165755391120911,
					0.6051155924797058,
					0.800000011920929
				],
				"roughnessFactor":0
			}
		}
	],
	"meshes":[
		{
			"name":"Cube.001",
			"primitives":[
				{
					"attributes":{
						"POSITION":0,
						"NORMAL":1,
						"TEXCOORD_0":2
					},
					"indices":3,
					"material":0
				},
				{
					"attributes":{
						"POSITION":4,
						"NORMAL":5,
						"TEXCOORD_0":6
					},
					"indices":7,
					"material":1
				}
			]
		}
	],
	"textures":[
		{
			"sampler":0,
			"source":0
		}
	],
	"images":[
		{
			"mimeType":"image/png",
			"name":"diamond_top.png",
			"uri":"../../../../../_assets/3D/_textures/Diamond/diamond_top.png"
		}
	],
	"accessors":[
		{
			"bufferView":0,
			"componentType":5126,
			"count":9493,
			"max":[
				6.693286418914795,
				11.23059368133545,
				1.8569958209991455
			],
			"min":[
				-6.693276882171631,
				-9.642377853393555,
				-1.8569958209991455
			],
			"type":"VEC3"
		},
		{
			"bufferView":1,
			"componentType":5126,
			"count":9493,
			"type":"VEC3"
		},
		{
			"bufferView":2,
			"componentType":5126,
			"count":9493,
			"type":"VEC2"
		},
		{
			"bufferView":3,
			"componentType":5123,
			"count":25578,
			"type":"SCALAR"
		},
		{
			"bufferView":4,
			"componentType":5126,
			"count":20128,
			"max":[
				6.739075183868408,
				11.366010665893555,
				1.667500376701355
			],
			"min":[
				-6.739642143249512,
				-9.711591720581055,
				-1.667500376701355
			],
			"type":"VEC3"
		},
		{
			"bufferView":5,
			"componentType":5126,
			"count":20128,
			"type":"VEC3"
		},
		{
			"bufferView":6,
			"componentType":5126,
			"count":20128,
			"type":"VEC2"
		},
		{
			"bufferView":7,
			"componentType":5123,
			"count":33522,
			"type":"SCALAR"
		}
	],
	"bufferViews":[
		{
			"buffer":0,
			"byteLength":113916,
			"byteOffset":0,
			"target":34962
		},
		{
			"buffer":0,
			"byteLength":113916,
			"byteOffset":113916,
			"target":34962
		},
		{
			"buffer":0,
			"byteLength":75944,
			"byteOffset":227832,
			"target":34962
		},
		{
			"buffer":0,
			"byteLength":51156,
			"byteOffset":303776,
			"target":34963
		},
		{
			"buffer":0,
			"byteLength":241536,
			"byteOffset":354932,
			"target":34962
		},
		{
			"buffer":0,
			"byteLength":241536,
			"byteOffset":596468,
			"target":34962
		},
		{
			"buffer":0,
			"byteLength":161024,
			"byteOffset":838004,
			"target":34962
		},
		{
			"buffer":0,
			"byteLength":67044,
			"byteOffset":999028,
			"target":34963
		}
	],
	"samplers":[
		{
			"magFilter":9729,
			"minFilter":9987
		}
	],
	"buffers":[
		{
			"byteLength":1066072,
			"uri":"Moissanite%20Ring.bin"
		}
	]
}
